<svg id="Capa_1" enable-background="new 0 0 512 512" height="512" viewBox="0 0 512 512" width="512" xmlns="http://www.w3.org/2000/svg"><g><path d="m250.969 310.55s8.982 15 21.263 27.773c10.03 10.431 24.773 14.889 38.972 12.096l31.468-6.19c9.884-1.944 14.834-13.186 9.506-21.736-7.208-11.566-14.336-25.594-15.195-32.854z" fill="#a1dcfc"/><path d="m95.328 305.768c3.275 31.265 35.989 56.429 69.082 53.598 26.038-2.227 27.521-30.106 3.7-61.074z" fill="#a1dcfc"/><path d="m179.941 209.075c5.418-16.122 31.762-40.773 58.492-54.976 11.813-6.277 26.344-4.072 35.802 5.387l22.045 22.045c5.418 5.419 3.949 14.561-2.908 17.981-12.257 6.113-26.159 14.092-34.032 18.316z" fill="#565e75"/><path d="m393.56 273.453c9.352 17.905 71.302 95.269 98.265 87.479 29.158-8.423 1.262-67.119-16.36-91.881-3.65-5.129-3.65-12.005 0-17.134 17.622-24.762 45.518-83.458 16.36-91.881-26.963-7.789-88.913 69.575-98.265 87.479z" fill="#565e75"/><path d="m203.606 178.655c-11.802 10.64-20.754 21.76-23.665 30.419l79.399 8.754c7.873-4.224 21.775-12.203 34.032-18.316 4.796-2.392 6.945-7.582 5.956-12.341-1.274-.156-2.531-.315-3.821-.469-30.733-3.663-62.571-6.254-91.901-8.047z" fill="#404656"/><path d="m100.183 200.056c-51.865 0-92.683 21.096-92.683 54.469 0 33.374 44.767 66.387 101.025 66.387 121.493 0 323.914-10.446 323.914-60.428s-262.29-60.428-332.256-60.428z" fill="#b8e5ff"/><path d="m79.856 201.191c-41.814 4.788-72.356 24.466-72.356 53.334 0 33.373 44.767 66.387 101.025 66.387 1.587 0 3.191-.002 4.806-.006-58.187-23.494-46.579-97.744-33.475-119.715z" fill="#a1dcfc"/><g><g><ellipse cx="114.399" cy="279.096" fill="#fff" rx="29.355" ry="23.377"/></g></g><path d="m108.325 200.097c13.137 51.576 123.549 52.092 320.495 50.574-30.543-39.983-246.162-49.879-320.495-50.574z" fill="#565e75"/><path d="m481.575 256.265c10.326-14.51 37.741-61.842 28.58-88.111-2.696-7.733-8.315-13.032-16.248-15.324-29.965-8.656-80.567 54.381-94.23 72.313-29.001-10.191-69.976-16.564-100.551-20.367 9.602-6.767 10.588-20.419 2.458-28.549l-22.045-22.045c-11.882-11.882-29.816-14.576-44.625-6.708-1.691.899-3.418 1.858-5.132 2.851-3.584 2.076-4.807 6.665-2.73 10.249s6.665 4.808 10.25 2.73c1.556-.901 3.12-1.77 4.651-2.584 8.948-4.756 19.791-3.12 26.979 4.068l22.046 22.045c1.807 1.806 1.319 4.833-.952 5.965-5.903 2.944-12.045 6.245-17.098 9.005-25.74-2.651-51.687-4.601-75.736-6.007 3.543-4.093 7.798-8.37 12.602-12.618 3.104-2.744 3.395-7.484.65-10.587-2.742-3.103-7.482-3.393-10.586-.65-8.841 7.817-15.962 15.641-20.858 22.874-33.85-1.677-62.383-2.261-78.818-2.261-58.986.002-100.182 25.484-100.182 61.971 0 18.822 11.915 37.741 32.69 51.905 17.248 11.759 38.726 19.118 61.594 21.291 12.952 25.327 41.953 41.58 70.765 39.117 20.203-1.729 31.525-17.001 26.039-39.982 18.998-.727 39.166-1.774 59.508-3.267 4.094 5.822 9.704 13.147 16.229 19.932 11.813 12.286 28.956 17.574 45.825 14.256l31.468-6.19c15.037-2.958 22.514-20.08 14.424-33.062-1.569-2.517-3.096-5.104-4.535-7.662 19.006-3.719 34.863-7.99 47.375-12.77 11.769 15.323 25.87 31.104 38.499 43.011 3.006 2.834 7.752 2.711 10.603-.312 2.842-3.014 2.702-7.76-.312-10.602-11.318-10.671-23.891-24.621-34.721-38.434 16.257-8.703 24.487-19.186 24.487-31.275 0-11.433-8.515-21.162-25.885-29.477 9.758-12.596 23.357-28.38 37.387-41.418 25.446-23.648 35.752-23.085 38.302-22.347 3.236.935 5.163 2.739 6.249 5.852 5.582 16.008-12.207 54.198-26.638 74.475-5.498 7.725-5.498 18.107 0 25.832 14.431 20.277 32.22 58.467 26.638 74.475-1.086 3.112-3.013 4.917-6.249 5.852-2.846.823-7.508-.349-13.128-3.298-3.67-1.927-8.201-.511-10.127 3.156-1.924 3.668-.511 8.201 3.156 10.126 7.518 3.945 16.109 6.779 24.263 4.426 7.933-2.292 13.552-7.591 16.248-15.324 9.161-26.27-18.254-73.602-28.58-88.112-1.795-2.52-1.795-5.91.001-8.434zm-76.507-12.924c-91.366.602-156.412.211-204.542-5.495-24.891-2.952-66.604-9.355-80.638-30.085 66.079 1.225 225.099 9.066 285.18 35.58zm-229.512 102.633c-2.086 3.437-6.051 5.428-11.785 5.919-19.522 1.668-39.749-8.005-51.402-23.485 16.897-.03 38.807-.27 63.323-1.021 2.425 7.764 2.415 14.384-.136 18.587zm165.669-9.104-31.468 6.19c-11.887 2.338-23.89-1.377-32.118-9.935-3.448-3.586-6.625-7.359-9.422-10.942 23.211-2.007 47.441-4.733 70.232-8.519 2.208 4.184 4.703 8.527 7.364 12.796 2.559 4.109.138 9.48-4.588 10.41zm83.281-78.666c.327.909.434 1.679.434 2.28 0 8.036-10.709 28.168-109.898 41.525-49.978 6.73-106.23 9.576-151.454 10.711 6.056-10.115 9.184-21.522 9.115-33.667-.023-4.127-3.377-7.457-7.499-7.457h-.043c-4.143.023-7.481 3.4-7.458 7.542.073 12.893-4.277 24.308-12.934 33.972-13.762.227-26.054.301-36.243.301-46.842 0-83.323-23.808-91.705-48.384 5.113 3.986 11.439 6.208 18.022 6.208 8.479 0 16.54-3.671 22.118-10.073 2.722-3.123 2.396-7.86-.728-10.582-3.123-2.721-7.86-2.396-10.581.727-2.729 3.132-6.669 4.928-10.81 4.928-4.142 0-8.082-1.796-10.811-4.928-2.192-2.516-5.693-3.212-8.603-1.967 2.268-13.707 13.263-22.721 22.657-28.038 18.945-10.724 43.014-13.819 64.791-13.741 9.622 24.466 39.611 38.509 95.884 45.181 57.367 6.802 143.274 6.085 225.746 5.462zm-327.215-21.111c-4.143 0-7.5 3.358-7.5 7.5v12c0 4.142 3.357 7.5 7.5 7.5s7.5-3.358 7.5-7.5v-12c0-4.142-3.357-7.5-7.5-7.5z"/></g></svg>