<svg id="Capa_1" enable-background="new 0 0 512.036 512.036" height="512" viewBox="0 0 512.036 512.036" width="512" xmlns="http://www.w3.org/2000/svg"><g><path d="m193.305 122.842c-7.886-7.885-7.886-20.67 0-28.556 29.299-29.299 83.338-45.017 125.706-36.553 10.936 2.184 18.031 12.82 15.847 23.755-2.183 10.937-12.82 18.035-23.755 15.847-28.794-5.749-69.664 5.93-89.242 25.506-7.884 7.886-20.67 7.887-28.556.001z" fill="#deb597"/><path d="m319.011 57.734c-15.339-3.065-32.208-2.945-48.879-.173-5.263 15.115-9.693 30.237-13.165 44.927 17.905-6.104 37.932-8.388 54.135-5.153 10.935 2.188 21.572-4.91 23.755-15.847 2.185-10.935-4.91-21.571-15.846-23.754z" fill="#d79882"/><path d="m298.286 189.931c-11.152 0-20.192-9.04-20.192-20.192 0-41.647 15.514-99.452 40.487-150.859 4.872-10.031 16.953-14.215 26.986-9.339 10.031 4.873 14.212 16.955 9.339 26.986-26.887 55.346-36.427 106.35-36.427 133.211-.001 11.152-9.041 20.193-20.193 20.193z" fill="#deb597"/><g><path d="m79.423 262.753c-13.812-1.295-24.733-12.216-26.029-26.029-3.026-32.27 8.751-76.101 43.509-110.86 43.25-43.25 96.044-55.223 122.323-28.944s14.306 79.073-28.944 122.323c-34.758 34.759-78.588 46.536-110.859 43.51z" fill="#7fd29b"/></g><path d="m298.286 154.239c93.444 0 160.793 121.906 160.793 207.39 0 93.288-66.212 156.257-158.743 140.444-.674-.115-1.364-.174-2.05-.174s-1.375.059-2.05.174c-92.531 15.813-158.743-47.156-158.743-140.444 0-85.483 67.349-207.39 160.793-207.39z" fill="#8ce0cd"/><path d="m203.587 200.189c-40.918 43.309-66.093 109.179-66.093 161.441 0 93.288 66.212 156.257 158.743 140.444.674-.115 1.364-.174 2.049-.174.686 0 1.376.059 2.05.174 45.662 7.803 84.907-3.588 112.957-28.331-240.748-22.411-230.303-215.498-209.706-273.554z" fill="#7fd29b"/><path d="m289.857 464.754c5.577-.953 11.28-.953 16.857 0 72.973 12.472 114.504-37.709 114.504-103.124 0-67.894-55.039-169.53-122.932-169.53-67.894 0-122.932 101.636-122.932 169.53 0 65.415 41.531 115.595 114.503 103.124z" fill="#f3c7d1"/><path d="m194.415 282.325c-12.068 26.636-19.061 55.112-19.061 79.305 0 65.415 41.531 115.596 114.504 103.124 5.577-.953 11.28-.953 16.857 0 17.454 2.983 33.104 2.374 46.823-1.163-118.927-30.788-154.281-113.642-159.123-181.266z" fill="#eda1ab"/><path d="m327.301 150.467c2.073-16.851 8.096-49.907 25.463-91.065 1.61-3.816-.178-8.215-3.995-9.826-3.814-1.609-8.215.179-9.826 3.995-13.385 31.722-22.82 65.495-26.402 94.081-8.837-1.111-16.992-1.189-25.582-.332 4.254-37.829 18.287-83.827 38.368-125.162 5.12-10.541 20.502-9.027 23.637 2.117 1.122 3.987 5.261 6.312 9.25 5.189 3.987-1.122 6.311-5.263 5.189-9.25-2.142-7.614-7.448-13.963-14.558-17.417-13.763-6.688-30.32-.966-37.01 12.807-5.129 10.557-9.873 21.421-14.185 32.388-33.763-.615-70.738 10.811-96.737 29.958-31.065-8.705-73.502 6.801-109.312 42.612-38.175 38.176-48.624 85.399-45.673 116.863 1.629 17.374 15.422 31.166 32.796 32.796 27.186 2.547 55.358-4.592 79.721-17.882-17.91 35.339-28.451 74.919-28.451 109.292 0 37.928 10.504 71.929 30.376 98.325 2.491 3.309 7.193 3.974 10.503 1.481 3.309-2.491 3.972-7.193 1.481-10.503-17.899-23.776-27.36-54.656-27.36-89.304 0-83.617 65.957-199.891 153.292-199.891 39.902 0 78.71 24.295 109.273 68.41 27.152 39.191 44.02 89.572 44.02 131.48 0 89.986-63.323 147.86-149.984 133.05-2.181-.371-4.432-.372-6.621.001-37.812 6.46-71.986-.518-98.828-20.185-3.341-2.448-8.034-1.725-10.482 1.617-2.448 3.341-1.724 8.034 1.617 10.482 51.268 37.565 108.071 22.238 111.792 22.87 95.218 16.271 167.506-47.892 167.506-147.836-.001-81.461-57.446-189.987-139.278-211.161zm-118.984 34.501c-11.242 10.283-21.856 22.526-31.633 36.637-28.069 24.14-64.098 36.725-96.561 33.68-10.204-.957-18.305-9.058-19.262-19.262-2.632-28.07 6.847-70.357 41.345-104.857 39.437-39.438 88.509-52.151 111.717-28.944 17.391 17.392 15.158 49.79-5.606 82.746zm63.294-35.066c-12.669 3.007-25.055 8.142-36.973 15.289 5.843-16.549 7.327-32.415 4.414-46.189 11.365-6.968 25.921-12.095 40.486-14.341-3.873 15.816-6.574 31.106-7.927 45.241zm-37.63-45.31c-4.197-8.142-10.166-14.606-17.16-19.338 21.383-13.487 49.06-21.705 75.227-22.265-3.078 8.693-5.867 17.393-8.339 26.006-17.399 1.789-35.403 7.466-49.728 15.597zm-69.869 36.837-57.89 57.891c-2.929 2.929-2.929 7.678 0 10.606 2.929 2.929 7.678 2.929 10.606 0l57.89-57.891c2.929-2.929 2.929-7.678 0-10.607-2.929-2.928-7.678-2.928-10.606.001zm180.318 240.744c-2.929-2.93-7.678-2.93-10.606-.001-2.929 2.929-2.93 7.677-.001 10.606l2.806 2.807c2.928 2.929 7.677 2.93 10.606.001s2.93-7.677.001-10.607zm-38.979 89.973c75.059 12.832 123.267-37.529 123.267-110.517 0-71.265-57.397-177.03-130.432-177.03-73.032 0-130.432 105.767-130.432 177.03 0 72.528 47.761 123.425 123.267 110.517 4.754-.812 9.576-.812 14.33 0zm-16.857-14.785c-65.954 11.274-105.74-32.175-105.74-95.732 0-64.384 52.611-162.03 115.432-162.03 62.825 0 115.432 97.645 115.432 162.03 0 63.461-39.696 107.021-105.74 95.732-6.431-1.099-12.953-1.099-19.384 0zm-36.452-75.188-2.806 2.807c-2.929 2.929-2.928 7.678.001 10.607 2.928 2.928 7.678 2.929 10.607-.001l2.806-2.807c2.929-2.929 2.928-7.678-.001-10.606-2.929-2.93-7.678-2.93-10.607 0zm80.887-45.757c0 4.142 3.358 7.5 7.5 7.5h6.73c4.142 0 7.5-3.358 7.5-7.5s-3.358-7.5-7.5-7.5h-6.73c-4.142 0-7.5 3.358-7.5 7.5zm-70.631-58.991c-2.929-2.929-7.678-2.929-10.606 0-2.929 2.929-2.929 7.678 0 10.606l4.32 4.32c2.929 2.929 7.678 2.929 10.607 0s2.929-7.678 0-10.607zm78.062 14.927 4.32-4.32c2.929-2.929 2.929-7.678 0-10.606-2.929-2.929-7.678-2.929-10.607 0l-4.32 4.32c-2.929 2.929-2.929 7.678 0 10.607 2.93 2.928 7.679 2.927 10.607-.001zm-84.417 51.564c4.142 0 7.5-3.358 7.5-7.5s-3.358-7.5-7.5-7.5h-6.73c-4.142 0-7.5 3.358-7.5 7.5s3.358 7.5 7.5 7.5z"/></g></svg>